<?xml version="1.0" encoding="UTF-8" standalone="no"?>
<svg
   xmlns:dc="http://purl.org/dc/elements/1.1/"
   xmlns:cc="http://creativecommons.org/ns#"
   xmlns:rdf="http://www.w3.org/1999/02/22-rdf-syntax-ns#"
   xmlns:svg="http://www.w3.org/2000/svg"
   xmlns="http://www.w3.org/2000/svg"
   xmlns:sodipodi="http://sodipodi.sourceforge.net/DTD/sodipodi-0.dtd"
   xmlns:inkscape="http://www.inkscape.org/namespaces/inkscape"
   inkscape:version="1.0 (4035a4f, 2020-05-01)"
   sodipodi:docname="poster.svg"
   id="svg8"
   version="1.1"
   viewBox="0 0 264.58334 111.125"
   height="111.125mm"
   width="264.58334mm">
  <defs
     id="defs2" />
  <sodipodi:namedview
     fit-margin-bottom="0"
     fit-margin-right="0"
     fit-margin-left="0"
     fit-margin-top="0"
     inkscape:window-maximized="0"
     inkscape:window-y="23"
     inkscape:window-x="0"
     inkscape:window-height="790"
     inkscape:window-width="1440"
     showgrid="false"
     inkscape:document-rotation="0"
     inkscape:current-layer="g1054"
     inkscape:document-units="mm"
     inkscape:cy="316.46445"
     inkscape:cx="563.38185"
     inkscape:zoom="1.1289028"
     inkscape:pageshadow="2"
     inkscape:pageopacity="0.0"
     borderopacity="1.0"
     bordercolor="#666666"
     pagecolor="#ffffff"
     id="base" />
  <metadata
     id="metadata5">
    <rdf:RDF>
      <cc:Work
         rdf:about="">
        <dc:format>image/svg+xml</dc:format>
        <dc:type
           rdf:resource="http://purl.org/dc/dcmitype/StillImage" />
        <dc:title></dc:title>
      </cc:Work>
    </rdf:RDF>
  </metadata>
  <g
     transform="translate(120.52357,64.886742)"
     id="layer1"
     inkscape:groupmode="layer"
     inkscape:label="Layer 1">
    <rect
       inkscape:export-ydpi="96"
       inkscape:export-xdpi="96"
       y="-64.886742"
       x="-120.52357"
       height="111.125"
       width="264.58334"
       id="rect861"
       style="fill:#ffffff;fill-opacity:1;stroke-width:2.821;stroke-miterlimit:4;stroke-dasharray:none" />
    <g
       inkscape:export-ydpi="96"
       inkscape:export-xdpi="96"
       transform="translate(0,-6.6336489)"
       id="g1054">
      <text
         xml:space="preserve"
         style="font-style:normal;font-variant:normal;font-weight:bold;font-stretch:normal;font-size:12.8006px;line-height:1.25;font-family:'IBM Plex Mono';-inkscape-font-specification:'IBM Plex Mono Bold';fill:#000000;fill-opacity:1;stroke:none;stroke-width:0.228581"
         x="-87.796455"
         y="-23.43425"
         id="text894"
         inkscape:export-xdpi="96"
         inkscape:export-ydpi="96"><tspan
           sodipodi:role="line"
           id="tspan892"
           x="-87.796455"
           y="-23.43425"
           style="font-style:normal;font-variant:normal;font-weight:bold;font-stretch:normal;font-size:12.8006px;font-family:'IBM Plex Mono';-inkscape-font-specification:'IBM Plex Mono Bold';fill:#000000;fill-opacity:1;stroke-width:0.228581">Optimizing Your Job Search</tspan></text>
      <text
         xml:space="preserve"
         style="font-style:normal;font-variant:normal;font-weight:normal;font-stretch:normal;font-size:5.1309px;line-height:1.25;font-family:'IBM Plex Mono';-inkscape-font-specification:'IBM Plex Mono';fill:#000000;fill-opacity:1;stroke:none;stroke-width:0.183246"
         x="-87.83036"
         y="-7.6520228"
         id="text898"
         inkscape:export-xdpi="96"
         inkscape:export-ydpi="96"><tspan
           sodipodi:role="line"
           id="tspan896"
           x="-87.83036"
           y="-7.6520228"
           style="font-style:normal;font-variant:normal;font-weight:normal;font-stretch:normal;font-size:5.1309px;font-family:'IBM Plex Mono';-inkscape-font-specification:'IBM Plex Mono';fill:#000000;fill-opacity:1;stroke-width:0.183246">Job filtering tips for LinkedIn, Who is Hiring?, and Hacker News.</tspan><tspan
           sodipodi:role="line"
           x="-87.83036"
           y="-1.238398"
           style="font-style:normal;font-variant:normal;font-weight:normal;font-stretch:normal;font-size:5.1309px;font-family:'IBM Plex Mono';-inkscape-font-specification:'IBM Plex Mono';fill:#000000;fill-opacity:1;stroke-width:0.183246"
           id="tspan900" /></text>
      <g
         id="g1043">
        <path
           id="path1030"
           d="M 40.401507,15.166316 V 2.6663142 h 12.5 12.499992 V 15.166316 27.666315 h -12.499992 -12.5 z m 23.567712,0 V 4.0986058 H 52.901507 41.833797 V 15.166316 26.234023 h 11.06771 11.067712 z m -20.833342,0 V 5.4006893 h 9.76563 9.765632 v 9.7656267 9.765625 h -9.765632 -9.76563 z m 10.41667,3.459027 v -2.074826 l 1.888022,-3.431627 c 1.03842,-1.887396 1.88803,-3.4439582 1.88803,-3.4590282 0,-0.01507 -0.30141,-0.02741 -0.66978,-0.02741 h -0.66979 l -1.51822,2.7994802 c -0.835042,1.539713 -1.541222,2.799479 -1.569302,2.799479 -0.0282,0 -0.73427,-1.259766 -1.5693,-2.799479 l -1.51822,-2.7994802 h -0.66979 c -0.36837,0 -0.66977,0.01232 -0.66977,0.02741 0,0.01507 0.8496,1.5716322 1.88801,3.4590282 l 1.88803,3.431627 v 2.074826 2.074826 h 0.65104 0.65104 z"
           style="fill:#ee6f2d;fill-opacity:1;stroke-width:0.0651042" />
        <path
           id="path1012"
           d="m -40.67083,27.569413 c -0.489495,-0.182093 -0.925331,-0.620949 -1.103947,-1.111598 -0.07205,-0.197919 -0.07573,-0.667874 -0.08733,-11.148152 -0.0089,-8.016875 3.35e-4,-11.0074927 0.03444,-11.1883246 0.121441,-0.6437759 0.583185,-1.1688283 1.211886,-1.3780462 0.247173,-0.082251 0.320857,-0.082723 11.353742,-0.072211 l 11.104953,0.010534 0.274756,0.1301681 c 0.472479,0.22384 0.818698,0.6049954 0.977363,1.0759847 l 0.08531,0.2532608 -0.01053,11.0983252 -0.01053,11.098323 -0.152933,0.309436 c -0.189401,0.383224 -0.499209,0.687971 -0.885338,0.870877 l -0.278002,0.131686 -11.126623,0.0083 -11.126624,0.0083 z m 6.245435,-9.565503 v -5.964364 h -1.851009 -1.851009 v 5.964364 5.964364 h 1.851009 1.851009 z m 6.046632,2.637935 c 0,-3.599367 0.0056,-3.705796 0.226733,-4.341789 0.200802,-0.577406 0.606942,-0.990867 1.161466,-1.182406 0.23668,-0.08175 0.356711,-0.0957 0.812444,-0.09447 0.45934,0.0012 0.568272,0.01478 0.772583,0.096 0.588458,0.233932 0.898957,0.663575 1.08892,1.506754 0.05559,0.246737 0.06714,0.792622 0.08071,3.815137 l 0.01585,3.527201 h 1.851827 1.851828 l -0.01756,-3.91797 c -0.01837,-4.099868 -0.02446,-4.248204 -0.209794,-5.110848 -0.240632,-1.120017 -0.71337,-1.936094 -1.409153,-2.432595 -0.531553,-0.379308 -1.232539,-0.629137 -1.997776,-0.712001 -1.347101,-0.145872 -2.411492,0.08548 -3.303626,0.718048 -0.299917,0.212658 -0.753737,0.685798 -0.904424,0.942923 -0.06057,0.103351 -0.126878,0.187918 -0.147352,0.187918 -0.02094,0 -0.03722,-0.350937 -0.03722,-0.802104 v -0.802104 h -1.768743 -1.768742 v 5.964364 5.964364 h 1.85101 1.851009 z M -35.62552,10.288583 c 0.3992,-0.133533 0.646753,-0.2917516 0.921339,-0.5888576 0.606317,-0.656043 0.734465,-1.5943468 0.332102,-2.4316707 -0.06499,-0.1352385 -0.225793,-0.3433636 -0.399799,-0.5174407 -1.351573,-1.352129 -3.654295,-0.4039905 -3.654295,1.5046454 0,1.452605 1.430943,2.4914946 2.800653,2.0333236 z"
           style="fill:#0073b1;fill-opacity:1;stroke-width:0.0411336" />
        <path
           id="path1028"
           d="M -0.7090731,15.166314 V 2.6663146 H 11.790927 24.290926 V 15.166314 27.666315 H 11.790927 -0.7090731 Z m 3.2382789,3.80579 c 0.142982,-0.172283 1.175095,-7.409285 1.074606,-7.534956 -0.101222,-0.12659 -0.864571,-0.139458 -0.940958,-0.01586 -0.03001,0.04857 -0.297851,1.760051 -0.595188,3.803295 -0.440017,3.023714 -0.519939,3.728096 -0.42951,3.78542 0.174806,0.11081 0.789326,0.08468 0.89105,-0.0379 z M 17.146653,17.18845 c 0.60273,-0.239537 0.644434,-0.364651 0.643045,-1.929208 -9.44e-4,-0.92856 -0.03513,-1.453212 -0.104167,-1.592928 -0.05662,-0.114583 -0.282885,-0.297565 -0.502822,-0.406626 -0.335637,-0.166435 -0.523074,-0.197835 -1.166667,-0.195446 -0.881049,0.0033 -1.381569,0.159676 -1.615994,0.504971 -0.125968,0.185543 -0.155383,0.4358 -0.17869,1.520365 -0.03213,1.495412 0.04359,1.806168 0.497282,2.040782 0.568262,0.293859 1.762847,0.322439 2.428013,0.05809 z m -1.558107,-0.986422 c -0.189584,-0.189584 -0.189584,-1.79851 0,-1.988095 0.14943,-0.149429 0.552901,-0.172217 0.79119,-0.04469 0.144718,0.07745 0.161191,0.18219 0.161191,1.025 0,0.619016 -0.03406,0.972794 -0.1,1.038736 -0.143534,0.143533 -0.698032,0.123398 -0.852381,-0.03095 z M 6.2865118,17.25201 c 0.09144,-0.04893 0.209557,-0.29621 0.298556,-0.625 0.11236,-0.41509 0.182996,-0.544029 0.298032,-0.544029 0.114327,0 0.192073,0.138689 0.321652,0.573794 0.184599,0.619849 0.251053,0.672826 0.846805,0.675069 0.367065,0.0014 0.428498,-0.0673 0.696069,-0.778168 0.194328,-0.516284 0.209966,-0.663481 0.209966,-1.976248 v -1.418415 l -0.604167,0.02448 -0.604164,0.02449 -0.04167,1.153793 -0.04167,1.153792 -0.230678,-0.471232 c -0.224396,-0.458388 -0.239126,-0.470531 -0.540385,-0.44546 -0.284364,0.02367 -0.32801,0.06327 -0.533496,0.484107 l -0.223796,0.458333 -0.02749,-1.166667 -0.02749,-1.166666 -0.604167,-0.02449 -0.604167,-0.02448 v 1.458193 c 0,1.33549 0.01704,1.505126 0.202447,2.015928 0.111346,0.306754 0.251971,0.589135 0.3125,0.627515 0.150843,0.09564 0.712558,0.09024 0.897305,-0.0086 z M 10.90911,17.2824 c 0.106526,-0.04088 0.131817,-0.19277 0.131817,-0.791667 v -0.741087 h 0.541666 0.541666 v 0.741085 c 0,0.831659 0.0079,0.842249 0.625002,0.842249 0.665776,0 0.624998,0.139229 0.624998,-2.133916 v -2.03275 h -0.624998 -0.625002 v 0.708333 0.708334 H 11.582593 11.040927 V 13.874647 13.166314 H 10.415926 9.7909268 v 2.034723 c 0,1.549805 0.02482,2.044739 0.104167,2.076754 0.1506612,0.06079 0.8592092,0.06401 1.0140162,0.0046 z m 9.365533,-0.02092 c 0.07452,-0.04726 0.100731,-0.223811 0.08333,-0.561224 l -0.02538,-0.492271 H 19.665925 18.99926 l -0.02583,0.455803 c -0.02028,0.358188 0.0054,0.478653 0.120094,0.5625 0.161679,0.118223 1.010334,0.143509 1.181112,0.03519 z m 0.09962,-1.515195 c 0.772109,-0.09986 1.151369,-0.268947 1.311082,-0.584533 0.139808,-0.276259 0.132482,-1.103071 -0.01285,-1.450913 -0.196696,-0.470754 -0.451046,-0.544525 -1.877427,-0.544525 H 18.54093 v 0.5 0.5 h 0.960948 c 0.814853,0 0.968945,0.02083 1.01354,0.13705 0.0809,0.210836 -0.167187,0.335766 -0.788378,0.396998 -0.769064,0.07581 -0.788384,0.09333 -0.687817,0.623625 0.107285,0.5657 0.140113,0.610878 0.405474,0.557992 0.121675,-0.02425 0.539981,-0.08532 0.929565,-0.135699 z"
           style="fill:#3e395f;fill-opacity:1;stroke-width:0.0833332" />
      </g>
    </g>
  </g>
</svg>
